<svg width="32" height="24" viewBox="0 0 32 24" fill="none" xmlns="http://www.w3.org/2000/svg">
<path fill-rule="evenodd" clip-rule="evenodd" d="M31.8347 12.4387C31.9376 12.3213 32.0001 12.1676 32.0001 11.9993C32.0001 11.8026 31.9147 11.6257 31.7789 11.5036L21.1373 0.861992C20.8773 0.601992 20.4546 0.601992 20.1946 0.861992C19.9346 1.12199 19.9346 1.54468 20.1946 1.80468L29.7226 11.3327H0.666687C0.298687 11.3327 0 11.6313 0 11.9993C0 12.3673 0.298687 12.666 0.666687 12.666H29.724L20.1946 22.1955C19.9346 22.4555 19.9346 22.8782 20.1946 23.1382C20.3253 23.2675 20.4959 23.3329 20.6666 23.3329C20.8373 23.3329 21.0079 23.2676 21.1373 23.1382L31.804 12.4715C31.8147 12.4609 31.8249 12.4499 31.8347 12.4387Z" fill="black" fill-opacity="0.46"/>
</svg>
